<svg width="283" height="82" viewBox="0 0 283 82" fill="none" xmlns="http://www.w3.org/2000/svg">
<rect x="24.2251" width="62" height="62" rx="9" transform="rotate(23 24.2251 0)" fill="#E5E7EB"/>
<rect x="10.1479" y="10.1484" width="61" height="61" rx="8.5" fill="white"/>
<rect x="10.1479" y="10.1484" width="61" height="61" rx="8.5" stroke="#D1D5DB"/>
<g clip-path="url(#clip0_14_32)">
<path d="M47.0119 45.0124L40.6479 51.3763L34.284 45.0124C30.7693 41.4976 30.7693 35.7992 34.284 32.2845C37.7987 28.7698 43.4971 28.7698 47.0119 32.2845C50.5266 35.7992 50.5266 41.4976 47.0119 45.0124ZM40.6479 40.6484C41.7525 40.6484 42.6479 39.753 42.6479 38.6484C42.6479 37.5439 41.7525 36.6484 40.6479 36.6484C39.5433 36.6484 38.6479 37.5439 38.6479 38.6484C38.6479 39.753 39.5433 40.6484 40.6479 40.6484Z" fill="#374151"/>
</g>
<circle cx="61" cy="20" r="5" fill="#B3EFD3" stroke="#10B981" stroke-width="4"/>
<path d="M128.958 12.4841V46.6482H121.952L108.356 26.9304H108.139V46.6482H99.882V12.4841H106.988L120.434 32.1685H120.717V12.4841H128.958ZM171.563 29.5662C171.563 33.3251 170.841 36.5113 169.395 39.1248C167.949 41.7382 165.992 43.7233 163.523 45.0801C161.065 46.4369 158.307 47.1153 155.249 47.1153C152.179 47.1153 149.416 46.4313 146.958 45.0634C144.5 43.6955 142.548 41.7104 141.103 39.1081C139.668 36.4946 138.951 33.314 138.951 29.5662C138.951 25.8072 139.668 22.621 141.103 20.0076C142.548 17.3941 144.5 15.409 146.958 14.0522C149.416 12.6954 152.179 12.017 155.249 12.017C158.307 12.017 161.065 12.6954 163.523 14.0522C165.992 15.409 167.949 17.3941 169.395 20.0076C170.841 22.621 171.563 25.8072 171.563 29.5662ZM163.122 29.5662C163.122 27.3419 162.806 25.4625 162.172 23.9277C161.549 22.393 160.648 21.2309 159.469 20.4413C158.301 19.6517 156.895 19.2569 155.249 19.2569C153.614 19.2569 152.207 19.6517 151.028 20.4413C149.849 21.2309 148.943 22.393 148.309 23.9277C147.686 25.4625 147.375 27.3419 147.375 29.5662C147.375 31.7904 147.686 33.6698 148.309 35.2046C148.943 36.7393 149.849 37.9014 151.028 38.691C152.207 39.4806 153.614 39.8754 155.249 39.8754C156.895 39.8754 158.301 39.4806 159.469 38.691C160.648 37.9014 161.549 36.7393 162.172 35.2046C162.806 33.6698 163.122 31.7904 163.122 29.5662ZM186.923 46.6482H178.049L189.576 12.4841H200.569L212.096 46.6482H203.221L195.197 21.0919H194.93L186.923 46.6482ZM185.739 33.2028H204.289V39.4751H185.739V33.2028Z" fill="white"/>
<path d="M113.338 61.4545V76H111.321L103.928 65.3324H103.793V76H101.598V61.4545H103.629L111.03 72.1364H111.165V61.4545H113.338ZM121.364 76.2202C120.341 76.2202 119.449 75.9858 118.687 75.517C117.924 75.0483 117.332 74.3925 116.911 73.5497C116.49 72.7069 116.279 71.7221 116.279 70.5952C116.279 69.4635 116.49 68.474 116.911 67.6264C117.332 66.7789 117.924 66.1207 118.687 65.652C119.449 65.1832 120.341 64.9489 121.364 64.9489C122.387 64.9489 123.279 65.1832 124.042 65.652C124.804 66.1207 125.396 66.7789 125.817 67.6264C126.239 68.474 126.449 69.4635 126.449 70.5952C126.449 71.7221 126.239 72.7069 125.817 73.5497C125.396 74.3925 124.804 75.0483 124.042 75.517C123.279 75.9858 122.387 76.2202 121.364 76.2202ZM121.371 74.4375C122.034 74.4375 122.583 74.2623 123.019 73.9119C123.455 73.5616 123.777 73.0952 123.985 72.5128C124.198 71.9304 124.304 71.2888 124.304 70.5881C124.304 69.892 124.198 69.2528 123.985 68.6705C123.777 68.0833 123.455 67.6122 123.019 67.2571C122.583 66.902 122.034 66.7244 121.371 66.7244C120.704 66.7244 120.15 66.902 119.709 67.2571C119.274 67.6122 118.949 68.0833 118.736 68.6705C118.528 69.2528 118.424 69.892 118.424 70.5881C118.424 71.2888 118.528 71.9304 118.736 72.5128C118.949 73.0952 119.274 73.5616 119.709 73.9119C120.15 74.2623 120.704 74.4375 121.371 74.4375ZM134.312 65.0909V66.7955H128.353V65.0909H134.312ZM129.951 62.4773H132.075V72.7969C132.075 73.2088 132.136 73.5189 132.26 73.7273C132.383 73.9309 132.541 74.0705 132.735 74.1463C132.934 74.2173 133.15 74.2528 133.382 74.2528C133.552 74.2528 133.701 74.241 133.829 74.2173C133.957 74.1937 134.056 74.1747 134.127 74.1605L134.511 75.9148C134.388 75.9621 134.213 76.0095 133.985 76.0568C133.758 76.1089 133.474 76.1373 133.133 76.142C132.574 76.1515 132.054 76.0521 131.571 75.8438C131.088 75.6354 130.697 75.3134 130.399 74.8778C130.1 74.4422 129.951 73.8954 129.951 73.2372V62.4773ZM141.646 76.2202C140.571 76.2202 139.645 75.9905 138.869 75.5312C138.097 75.0672 137.5 74.4162 137.079 73.5781C136.662 72.7353 136.454 71.7481 136.454 70.6165C136.454 69.4991 136.662 68.5142 137.079 67.6619C137.5 66.8097 138.087 66.1444 138.84 65.6662C139.598 65.188 140.483 64.9489 141.497 64.9489C142.112 64.9489 142.709 65.0507 143.286 65.2543C143.864 65.4579 144.382 65.7775 144.842 66.2131C145.301 66.6487 145.663 67.2145 145.928 67.9105C146.193 68.6018 146.326 69.4422 146.326 70.4318V71.1847H137.654V69.5938H144.245C144.245 69.035 144.131 68.5402 143.904 68.1094C143.677 67.6738 143.357 67.3305 142.945 67.0795C142.538 66.8286 142.06 66.7031 141.511 66.7031C140.914 66.7031 140.393 66.8499 139.948 67.1435C139.508 67.4323 139.167 67.8111 138.925 68.2798C138.689 68.7438 138.57 69.2481 138.57 69.7926V71.0355C138.57 71.7647 138.698 72.3849 138.954 72.8963C139.214 73.4077 139.577 73.7983 140.041 74.0682C140.505 74.3333 141.047 74.4659 141.667 74.4659C142.069 74.4659 142.436 74.4091 142.768 74.2955C143.099 74.1771 143.386 74.0019 143.627 73.7699C143.869 73.5379 144.053 73.2514 144.181 72.9105L146.191 73.2727C146.03 73.8646 145.741 74.383 145.325 74.8281C144.913 75.2685 144.394 75.6117 143.769 75.858C143.149 76.0994 142.441 76.2202 141.646 76.2202ZM157.257 67.7543L155.332 68.0952C155.252 67.849 155.124 67.6146 154.949 67.392C154.778 67.1695 154.546 66.9872 154.253 66.8452C153.959 66.7031 153.592 66.6321 153.152 66.6321C152.551 66.6321 152.049 66.767 151.646 67.0369C151.244 67.3021 151.042 67.6454 151.042 68.0668C151.042 68.4313 151.177 68.7249 151.447 68.9474C151.717 69.17 152.153 69.3523 152.754 69.4943L154.487 69.892C155.491 70.1241 156.239 70.4815 156.731 70.9645C157.224 71.4474 157.47 72.0748 157.47 72.8466C157.47 73.5 157.281 74.0824 156.902 74.5938C156.528 75.1004 156.005 75.4981 155.332 75.7869C154.665 76.0758 153.89 76.2202 153.01 76.2202C151.788 76.2202 150.792 75.9598 150.02 75.4389C149.248 74.9134 148.774 74.1676 148.599 73.2017L150.652 72.8892C150.78 73.4242 151.042 73.8291 151.44 74.1037C151.838 74.3736 152.356 74.5085 152.996 74.5085C153.692 74.5085 154.248 74.3641 154.665 74.0753C155.081 73.7817 155.29 73.4242 155.29 73.0028C155.29 72.6619 155.162 72.3755 154.906 72.1435C154.655 71.9115 154.269 71.7363 153.748 71.6179L151.902 71.2131C150.884 70.9811 150.131 70.6117 149.643 70.1051C149.16 69.5985 148.919 68.9569 148.919 68.1804C148.919 67.5365 149.099 66.973 149.459 66.4901C149.819 66.0071 150.316 65.6307 150.95 65.3608C151.585 65.0862 152.311 64.9489 153.131 64.9489C154.31 64.9489 155.238 65.2045 155.915 65.7159C156.592 66.2225 157.039 66.902 157.257 67.7543ZM170.493 76.2202C169.47 76.2202 168.578 75.9858 167.815 75.517C167.053 75.0483 166.461 74.3925 166.04 73.5497C165.619 72.7069 165.408 71.7221 165.408 70.5952C165.408 69.4635 165.619 68.474 166.04 67.6264C166.461 66.7789 167.053 66.1207 167.815 65.652C168.578 65.1832 169.47 64.9489 170.493 64.9489C171.516 64.9489 172.408 65.1832 173.171 65.652C173.933 66.1207 174.525 66.7789 174.946 67.6264C175.368 68.474 175.578 69.4635 175.578 70.5952C175.578 71.7221 175.368 72.7069 174.946 73.5497C174.525 74.3925 173.933 75.0483 173.171 75.517C172.408 75.9858 171.516 76.2202 170.493 76.2202ZM170.5 74.4375C171.163 74.4375 171.712 74.2623 172.148 73.9119C172.583 73.5616 172.905 73.0952 173.114 72.5128C173.327 71.9304 173.433 71.2888 173.433 70.5881C173.433 69.892 173.327 69.2528 173.114 68.6705C172.905 68.0833 172.583 67.6122 172.148 67.2571C171.712 66.902 171.163 66.7244 170.5 66.7244C169.833 66.7244 169.279 66.902 168.838 67.2571C168.403 67.6122 168.078 68.0833 167.865 68.6705C167.657 69.2528 167.553 69.892 167.553 70.5881C167.553 71.2888 167.657 71.9304 167.865 72.5128C168.078 73.0952 168.403 73.5616 168.838 73.9119C169.279 74.2623 169.833 74.4375 170.5 74.4375ZM180.472 69.5227V76H178.349V65.0909H180.387V66.8665H180.522C180.773 66.2888 181.166 65.8248 181.701 65.4744C182.241 65.1241 182.92 64.9489 183.739 64.9489C184.483 64.9489 185.134 65.1051 185.692 65.4176C186.251 65.7254 186.684 66.1847 186.992 66.7955C187.3 67.4062 187.454 68.1615 187.454 69.0611V76H185.33V69.3168C185.33 68.526 185.124 67.9081 184.712 67.4631C184.3 67.0133 183.735 66.7884 183.015 66.7884C182.522 66.7884 182.084 66.8949 181.701 67.108C181.322 67.321 181.021 67.6335 180.799 68.0455C180.581 68.4527 180.472 68.9451 180.472 69.5227ZM197.794 76H195.464L200.699 61.4545H203.234L208.469 76H206.139L202.027 64.0966H201.913L197.794 76ZM198.185 70.304H205.741V72.1506H198.185V70.304ZM212.922 69.5227V76H210.799V65.0909H212.837V66.8665H212.972C213.223 66.2888 213.616 65.8248 214.151 65.4744C214.691 65.1241 215.37 64.9489 216.189 64.9489C216.933 64.9489 217.584 65.1051 218.142 65.4176C218.701 65.7254 219.134 66.1847 219.442 66.7955C219.75 67.4062 219.904 68.1615 219.904 69.0611V76H217.78V69.3168C217.78 68.526 217.574 67.9081 217.162 67.4631C216.75 67.0133 216.185 66.7884 215.465 66.7884C214.972 66.7884 214.534 66.8949 214.151 67.108C213.772 67.321 213.471 67.6335 213.249 68.0455C213.031 68.4527 212.922 68.9451 212.922 69.5227ZM224.103 80.0909C223.786 80.0909 223.497 80.0649 223.237 80.0128C222.977 79.9654 222.782 79.9134 222.655 79.8565L223.166 78.1165C223.554 78.2206 223.9 78.2656 224.203 78.2514C224.506 78.2372 224.773 78.1236 225.005 77.9105C225.242 77.6974 225.451 77.3494 225.63 76.8665L225.893 76.142L221.902 65.0909H224.175L226.937 73.5568H227.051L229.814 65.0909H232.094L227.598 77.456C227.389 78.0241 227.124 78.5047 226.802 78.8977C226.48 79.2955 226.097 79.5938 225.652 79.7926C225.207 79.9915 224.691 80.0909 224.103 80.0909ZM239.582 65.0909V66.7955H233.623V65.0909H239.582ZM235.221 62.4773H237.344V72.7969C237.344 73.2088 237.406 73.5189 237.529 73.7273C237.652 73.9309 237.811 74.0705 238.005 74.1463C238.204 74.2173 238.419 74.2528 238.651 74.2528C238.822 74.2528 238.971 74.241 239.099 74.2173C239.226 74.1937 239.326 74.1747 239.397 74.1605L239.78 75.9148C239.657 75.9621 239.482 76.0095 239.255 76.0568C239.028 76.1089 238.744 76.1373 238.403 76.142C237.844 76.1515 237.323 76.0521 236.84 75.8438C236.357 75.6354 235.967 75.3134 235.668 74.8778C235.37 74.4422 235.221 73.8954 235.221 73.2372V62.4773ZM244.689 69.5227V76H242.565V61.4545H244.66V66.8665H244.795C245.051 66.2794 245.441 65.813 245.967 65.4673C246.493 65.1217 247.179 64.9489 248.027 64.9489C248.775 64.9489 249.428 65.1027 249.987 65.4105C250.55 65.7183 250.986 66.1776 251.294 66.7884C251.606 67.3944 251.762 68.152 251.762 69.0611V76H249.639V69.3168C249.639 68.5166 249.433 67.8963 249.021 67.456C248.609 67.0109 248.036 66.7884 247.302 66.7884C246.8 66.7884 246.351 66.8949 245.953 67.108C245.56 67.321 245.25 67.6335 245.022 68.0455C244.8 68.4527 244.689 68.9451 244.689 69.5227ZM254.996 76V65.0909H257.12V76H254.996ZM256.069 63.4077C255.699 63.4077 255.382 63.2846 255.117 63.0384C254.857 62.7874 254.726 62.4891 254.726 62.1435C254.726 61.7931 254.857 61.4948 255.117 61.2486C255.382 60.9976 255.699 60.8722 256.069 60.8722C256.438 60.8722 256.753 60.9976 257.013 61.2486C257.279 61.4948 257.411 61.7931 257.411 62.1435C257.411 62.4891 257.279 62.7874 257.013 63.0384C256.753 63.2846 256.438 63.4077 256.069 63.4077ZM262.5 69.5227V76H260.377V65.0909H262.415V66.8665H262.55C262.801 66.2888 263.194 65.8248 263.729 65.4744C264.269 65.1241 264.948 64.9489 265.767 64.9489C266.511 64.9489 267.162 65.1051 267.721 65.4176C268.279 65.7254 268.712 66.1847 269.02 66.7955C269.328 67.4062 269.482 68.1615 269.482 69.0611V76H267.358V69.3168C267.358 68.526 267.152 67.9081 266.74 67.4631C266.328 67.0133 265.763 66.7884 265.043 66.7884C264.551 66.7884 264.113 66.8949 263.729 67.108C263.35 67.321 263.05 67.6335 262.827 68.0455C262.609 68.4527 262.5 68.9451 262.5 69.5227ZM277.304 80.3182C276.437 80.3182 275.692 80.2045 275.067 79.9773C274.446 79.75 273.94 79.4493 273.547 79.0753C273.154 78.7012 272.86 78.2917 272.666 77.8466L274.491 77.0938C274.619 77.3021 274.79 77.5223 275.003 77.7543C275.22 77.991 275.514 78.1922 275.883 78.358C276.257 78.5237 276.738 78.6065 277.325 78.6065C278.13 78.6065 278.795 78.41 279.321 78.017C279.846 77.6288 280.109 77.0085 280.109 76.1562V74.0114H279.974C279.846 74.2434 279.662 74.5014 279.42 74.7855C279.183 75.0696 278.857 75.3158 278.44 75.5241C278.023 75.7325 277.481 75.8366 276.814 75.8366C275.952 75.8366 275.175 75.6354 274.484 75.233C273.798 74.8258 273.253 74.2268 272.851 73.4361C272.453 72.6406 272.254 71.6629 272.254 70.5028C272.254 69.3428 272.451 68.3485 272.844 67.5199C273.241 66.6913 273.786 66.0568 274.477 65.6165C275.168 65.1714 275.952 64.9489 276.828 64.9489C277.505 64.9489 278.052 65.0625 278.469 65.2898C278.885 65.5123 279.21 65.7727 279.442 66.071C279.678 66.3693 279.861 66.6321 279.988 66.8594H280.145V65.0909H282.226V76.2415C282.226 77.179 282.008 77.9484 281.572 78.5497C281.137 79.151 280.547 79.5961 279.804 79.8849C279.065 80.1738 278.232 80.3182 277.304 80.3182ZM277.282 74.0753C277.893 74.0753 278.409 73.9332 278.831 73.6491C279.257 73.3603 279.579 72.9484 279.797 72.4134C280.019 71.8736 280.13 71.2273 280.13 70.4744C280.13 69.7405 280.022 69.0942 279.804 68.5355C279.586 67.9768 279.266 67.5412 278.845 67.2287C278.424 66.9115 277.903 66.7528 277.282 66.7528C276.643 66.7528 276.111 66.9186 275.684 67.25C275.258 67.5767 274.936 68.0218 274.719 68.5852C274.505 69.1487 274.399 69.7784 274.399 70.4744C274.399 71.1894 274.508 71.8168 274.726 72.3565C274.943 72.8963 275.265 73.3177 275.692 73.6207C276.122 73.9238 276.653 74.0753 277.282 74.0753Z" fill="white"/>
<defs>
<clipPath id="clip0_14_32">
<rect width="24" height="21.7279" fill="white" transform="translate(28.6479 29.6484)"/>
</clipPath>
</defs>
</svg>
