<svg width="233" height="94" viewBox="0 0 233 94" fill="none" xmlns="http://www.w3.org/2000/svg">
<path d="M116.411 28.8492C120.474 28.8493 123.847 29.878 126.52 31.9442L127.014 32.3402C129.435 34.3576 131.136 37.0001 132.116 40.263L132.156 40.401L132.018 40.4373L126.86 41.825L126.727 41.8613L126.689 41.7269C126.057 39.4538 124.962 37.6455 123.405 36.2961L123.087 36.0328C121.382 34.6623 119.16 33.9713 116.411 33.9712C114.103 33.9713 112.166 34.4584 110.593 35.4261L110.284 35.6259C108.858 36.5907 107.735 37.8921 106.919 39.5346L106.588 40.2593C105.769 42.2504 105.357 44.5754 105.357 47.2376L105.371 48.2203C105.449 50.4759 105.846 52.4739 106.563 54.2159L106.895 54.9406C107.712 56.5828 108.833 57.8847 110.259 58.8493L110.571 59.0491C112.159 60.0171 114.104 60.504 116.411 60.504C119.16 60.5039 121.382 59.8129 123.087 58.4425L123.403 58.1773C124.961 56.8143 126.057 55.0066 126.689 52.7483L126.727 52.6139L126.86 52.6503L132.018 54.0379L132.156 54.0742L132.116 54.2123C131.136 57.4751 129.435 60.1177 127.014 62.1351L126.52 62.531C123.847 64.5973 120.474 65.6259 116.411 65.626C112.887 65.626 109.875 64.8582 107.384 63.3175C105.05 61.8591 103.227 59.8677 101.916 57.3473L101.66 56.8351C100.352 54.0719 99.7005 50.8714 99.7005 47.2376C99.7005 43.6038 100.352 40.4034 101.66 37.6402L101.916 37.128C103.227 34.6085 105.048 32.6246 107.382 31.1814L107.856 30.8999C110.253 29.5314 113.107 28.8493 116.411 28.8492ZM149.707 37.6075C152.355 37.6075 154.662 38.2046 156.618 39.4039L156.979 39.6345C158.758 40.8104 160.147 42.3846 161.146 44.3515L161.34 44.7475C162.277 46.7519 162.742 49.0349 162.742 51.5913C162.742 54.1784 162.269 56.4852 161.318 58.5061L161.122 58.9057C160.057 61.0039 158.547 62.6535 156.594 63.8515L156.592 63.8533C154.637 65.0362 152.339 65.6242 149.707 65.6242C147.223 65.624 145.042 65.0998 143.168 64.0458L142.797 63.8279C140.845 62.63 139.335 60.9801 138.269 58.882C137.22 56.7675 136.696 54.334 136.696 51.5913C136.696 48.8325 137.236 46.4012 138.318 44.3025L138.525 43.9101C139.591 41.9836 141.041 40.4729 142.872 39.3802L143.242 39.1659C145.113 38.1268 147.269 37.6077 149.707 37.6075ZM173.39 51.3988C173.39 52.4123 173.47 53.4599 173.631 54.5392L173.704 54.9334C173.89 55.8413 174.185 56.6942 174.59 57.4907L174.777 57.8213C175.233 58.5727 175.828 59.191 176.561 59.6758L176.892 59.8701C177.689 60.2911 178.688 60.5058 179.892 60.5058C180.674 60.5058 181.418 60.3963 182.124 60.1771L182.424 60.0754C183.213 59.7752 183.899 59.3015 184.484 58.6532L184.705 58.4007C185.201 57.7892 185.598 57.0153 185.892 56.0776L186.015 55.6635C186.245 54.8178 186.378 53.8375 186.411 52.7229L186.42 52.1544V38.3395H191.833V64.8959H187.029V61.9879C186.497 62.6089 185.9 63.1623 185.229 63.6408L184.613 64.0495C182.916 65.0872 180.869 65.6023 178.481 65.6024C176.651 65.6024 175.104 65.3073 173.848 64.7124C172.599 64.121 171.575 63.3472 170.782 62.3894L170.78 62.3875C170.105 61.5402 169.568 60.6278 169.169 59.654L169.007 59.2326C168.701 58.3874 168.467 57.5543 168.308 56.7352L168.172 55.9196C168.025 54.8454 167.952 53.8976 167.952 53.0789V38.3395H173.39V51.3988ZM225.19 31.1796L225.201 38.3395H233V43.1564H225.206L225.223 54.0506L225.228 55.5273C225.232 55.9834 225.238 56.4057 225.246 56.7933L225.295 57.3418C225.369 57.8648 225.518 58.3172 225.738 58.7004L225.964 59.0419C226.524 59.7957 227.335 60.2348 228.408 60.3587C229.683 60.4878 231.138 60.5526 232.842 60.3115L233 60.2897V64.8723L232.887 64.8941C231.431 65.1795 229.999 65.3209 228.592 65.3191L227.991 65.31C226.38 65.2606 225.01 64.8686 223.748 64.2947C222.625 63.7841 221.606 62.7683 220.938 61.6937L220.674 61.2305C220.093 60.118 219.899 58.8572 219.85 57.7287C219.817 56.5917 219.801 55.3063 219.801 53.8781V31.0397H225.19V31.1796ZM213.331 38.3395L213.467 38.3431V43.1473H213.327C212.336 43.1473 212.195 43.1468 211.104 43.1909C210.161 43.229 208.881 43.5275 208.007 43.9701L207.66 44.1681C206.85 44.6927 206.206 45.3252 205.731 46.0679L205.733 46.0697C205.272 46.8178 204.937 47.6551 204.729 48.5817C204.521 49.4948 204.415 50.4669 204.415 51.4951V64.8959H199.002V38.3395H203.806V42.5043C203.96 42.2708 204.117 42.0416 204.28 41.8323C204.779 41.1925 205.365 40.4644 206.067 39.996C206.744 39.5019 207.526 39.1147 208.347 38.8517L209.035 38.6501C209.795 38.4587 210.811 38.3122 212.484 38.3122H212.488L213.331 38.3395ZM149.707 42.6805C148.236 42.6807 147.001 42.9748 145.996 43.556L145.578 43.823C144.635 44.4749 143.901 45.3524 143.38 46.4584L143.17 46.947C142.642 48.2733 142.378 49.8213 142.378 51.5913C142.378 54.3276 143.006 56.5014 144.247 58.1246L144.485 58.4189C145.709 59.8374 147.444 60.5528 149.707 60.5531C152.187 60.5531 154.014 59.7227 155.215 58.0792L155.439 57.7596C156.518 56.1338 157.063 54.08 157.063 51.5913C157.062 48.8715 156.435 46.7138 155.194 45.1071C153.976 43.495 152.154 42.6805 149.707 42.6805Z" fill="#001A31"/>
<path d="M27.0798 51.5932C27.0799 53.0695 27.3275 54.3641 27.8209 55.4783L28.0152 55.8888C28.4853 56.8274 29.0836 57.6244 29.8079 58.2791L30.1239 58.5515C30.8715 59.1679 31.6917 59.6442 32.5851 59.9791L32.9756 60.1136C33.8878 60.4071 34.8117 60.553 35.7473 60.5531C36.8329 60.5531 37.8874 60.3622 38.9095 59.9791L39.2945 59.8211C40.1798 59.4335 40.9854 58.9103 41.712 58.2536L42.0154 57.9649C42.7009 57.2706 43.2543 56.4347 43.6737 55.4565L43.848 55.0279C44.2262 54.0153 44.4165 52.8706 44.4165 51.5932V29.5794H49.8528V51.8602C49.8527 54.4493 49.3291 56.737 48.2762 58.7168L48.0583 59.1091C46.8612 61.1749 45.1956 62.7823 43.0652 63.9296C40.9496 65.0611 38.5078 65.6261 35.7473 65.6261C32.9871 65.626 30.5389 65.0626 28.4075 63.9315L28.4057 63.9296C26.2915 62.7823 24.6351 61.1823 23.4381 59.1327C22.24 57.0646 21.6418 54.6377 21.6417 51.8602V29.6049H21.7816L26.9399 29.5794H27.0798V51.5932ZM70.3574 37.633C72.1883 37.633 73.7361 37.9278 74.9927 38.523L75.4504 38.7537C76.4917 39.3131 77.3535 40.0188 78.0332 40.8715L78.3202 41.2329C78.9688 42.0865 79.4735 43.0101 79.8332 44.0028L80.1147 44.8438C80.3722 45.6807 80.5563 46.505 80.6668 47.3158L80.7631 48.0986C80.8456 48.8567 80.8866 49.5442 80.8866 50.1583V64.8959H75.4504V51.8366C75.4504 50.8229 75.3606 49.7831 75.1834 48.7198C75.0433 47.7816 74.7812 46.9037 74.3969 46.0898L74.2244 45.7447C73.7653 44.8423 73.1088 44.114 72.2537 43.5596L72.2518 43.5578C71.4218 43.0098 70.323 42.7296 68.9461 42.7296C68.0543 42.7297 67.212 42.8819 66.4178 43.1837H66.4142C65.6262 43.4675 64.9306 43.9319 64.3291 44.5804L64.3309 44.5822C63.7475 45.2288 63.2755 46.0844 62.9232 47.1559L62.9251 47.1578C62.59 48.2271 62.4201 49.5352 62.4201 51.0828V64.8959H56.9821V38.3824H61.8117V41.2529C62.5005 40.4435 63.3033 39.7512 64.2274 39.1859L64.5488 38.9989C66.1804 38.087 68.1183 37.6331 70.3574 37.633ZM93.4213 64.8959H88.0559V38.4551H93.4213V64.8959ZM93.4213 34.1686H88.0559V28.9885H93.4213V34.1686Z" fill="#001A31"/>
<path d="M80.9164 0.403656L80.9256 0.401825L81.5537 0.434786C87.8648 0.910051 92.8794 6.02639 93.1872 12.3741L93.2018 12.9931V17.7853H88.3144V12.9931C88.314 8.99549 85.2686 5.70779 81.3687 5.31856L80.9897 5.28926H80.9805L80.596 5.2801L12.6095 5.29109C8.60795 5.2916 5.31635 8.33156 4.92589 12.2258L4.89659 12.6048V12.6122L4.88743 13.0059V81.0088L4.89659 81.4061C5.10353 85.4812 8.47839 88.723 12.6095 88.7235L80.5996 88.7126L80.9714 88.7034H80.9768C84.9305 88.5092 88.1037 85.3459 88.3052 81.3988V81.3896L88.3144 81.0069V76.2074H93.2018V81.0051L93.1982 81.3237C93.0284 88.02 87.6219 93.419 80.9164 93.589L80.5923 93.5927L12.6059 93.6L12.2836 93.5982C5.99062 93.4384 0.842922 88.6747 0.0933905 82.5543L0.0347925 81.9591L0.00549356 81.3494L0.00183119 81.3036L0 81.0106V13.004C0.000406739 6.16556 5.45946 0.599723 12.2634 0.416475L12.3257 0.414643L12.3294 0.410981L12.6077 0.40915L12.6059 0.407319L80.5923 0.399994L80.9164 0.403656Z" fill="#146B85"/>
</svg>
